<?xml version="1.0" encoding="UTF-8"?> <!-- Generator: Adobe Illustrator 23.0.1, SVG Export Plug-In . SVG Version: 6.00 Build 0) --> <svg xmlns="http://www.w3.org/2000/svg" xmlns:xlink="http://www.w3.org/1999/xlink" id="Layer_1" x="0px" y="0px" viewBox="0 0 101 101" style="enable-background:new 0 0 101 101;" xml:space="preserve"> <style type="text/css"> .st0{fill:#242626;} </style> <title>log_Artboard 2 copy 15</title> <path class="st0" d="M92.6,45.1c0-3.7-1.7-7.1-4.5-9.4c0.1-0.6,0.2-1.1,0.2-1.7c0-4.5-3.3-8.3-7.8-9c0.3-1.3,0.2-2.7-0.2-4 c-0.4-1.2-1.1-2.3-2-3.2c-1.4-1.7-3.3-2.8-5.5-3.3c-0.2-0.1-0.4-0.1-0.6-0.1h-0.3c-0.6,0-1.2,0-1.8,0.1c-0.4-2.2-1.6-4.2-3.3-5.6 c-2.1-1.7-4.9-2.5-7.6-2.1c-4.7,0.8-8.1,4.9-8.1,9.7v65.4c-0.2,6.7,5.1,12.3,11.8,12.5c0.1,0,0.3,0,0.4,0c4.4,0,8.5-2.4,10.7-6.2 c0.5,0.1,0.9,0.2,1.4,0.2c6,0.4,11.2-4.2,11.6-10.2c0.1-1.2-0.1-2.5-0.4-3.6c6.4-4.5,7.9-13.3,3.4-19.7c-0.3-0.4-0.6-0.8-0.9-1.1 C91.3,51.3,92.5,48.3,92.6,45.1z M89.5,62.8c0,3.4-1.6,6.7-4.3,8.8c-1.9-3.3-5.4-5.4-9.2-5.4c-0.8,0-1.5,0.7-1.5,1.5 s0.7,1.5,1.5,1.5c3.2,0.1,6.1,2.1,7.2,5.2c0.5,1.1,0.7,2.3,0.6,3.5c-0.3,4.4-4.1,7.7-8.4,7.4c-0.7-0.1-1.3-0.2-1.9-0.4 c-0.7-0.2-1.5,0.1-1.8,0.8c-1.7,4-5.9,6.2-10.1,5.5c-4.4-0.9-7.6-4.9-7.5-9.4V16.4c0-3.3,2.3-6.2,5.6-6.8c0.4-0.1,0.7-0.1,1.1-0.1 c1.5,0,3,0.5,4.2,1.5c1.4,1.2,2.3,2.9,2.4,4.7c-2.6,1.7-4.2,4.6-4.2,7.7c0,0.8,0.7,1.5,1.5,1.5c0.8,0,1.5-0.7,1.5-1.5 c0-3.3,2.6-6,5.8-6.1c1.2,0.1,2.5,0.7,4.2,2.5c0.6,0.6,1,1.3,1.3,2.1c0.4,1.1,0.3,2.4-0.1,3.5c-0.1,0.2-0.1,0.3-0.1,0.5V26l0,0 c-0.2,0.8,0.3,1.6,1.1,1.8c0.2,0,0.3,0.1,0.5,0h0.4c3.4,0,6.1,2.7,6.2,6.1l0,0c0,0.6-0.1,1.3-0.3,1.8c-0.2,0.6,0,1.3,0.6,1.7 c4.2,2.8,5.3,8.4,2.5,12.6c-0.5,0.7-1,1.3-1.7,1.9c-0.1,0.1-0.1,0.1-0.2,0.2c-1.5,1.1-3.4,1.7-5.3,1.7c-5,0-9.1-4.1-9.1-9.1 c0-0.8-0.7-1.5-1.5-1.5S69,43.9,69,44.7c0,6.7,5.4,12.1,12.1,12.1c2,0,4-0.5,5.8-1.5C88.5,57.5,89.5,60.1,89.5,62.8z"></path> <path class="st0" d="M38.9,6.7c-2.7-0.4-5.5,0.3-7.6,2.1c-1.7,1.4-2.9,3.4-3.4,5.6c-0.5-0.1-1.1-0.1-1.7-0.1H26c-0.1,0-0.2,0-0.4,0 c-1.7,0.2-3.7,1.1-6,3.4c-0.9,0.9-1.6,2-2,3.2c-0.4,1.3-0.5,2.7-0.2,4c-4.5,0.7-7.8,4.5-7.8,9c0,0.6,0.1,1.1,0.2,1.7 c-5.2,4.2-6,11.8-1.8,16.9c0.3,0.4,0.6,0.7,0.9,1c-5.1,5.9-4.5,14.9,1.5,20c0.4,0.3,0.7,0.6,1.1,0.9c-0.3,1.2-0.5,2.4-0.4,3.6 c0.4,6,5.6,10.6,11.6,10.2c0.5,0,0.9-0.1,1.4-0.2c2.2,3.9,6.2,6.3,10.7,6.2c6.7,0,12.1-5.4,12.1-12.2c0-0.1,0-0.2,0-0.3V16.4 C47,11.6,43.6,7.5,38.9,6.7z M44,81.8c0.1,4.5-3.1,8.5-7.5,9.4c-4.2,0.8-8.4-1.5-10.1-5.5c-0.2-0.5-0.8-0.9-1.3-0.9 c-0.2,0-0.3,0-0.5,0.1c-0.6,0.2-1.3,0.3-1.9,0.4c-4.4,0.3-8.2-3-8.4-7.4c-0.1-1.2,0.1-2.4,0.6-3.5c1.3-3,4.2-5.1,7.5-5.2 c0.8,0,1.5-0.7,1.5-1.5s-0.7-1.5-1.5-1.5c-3.9,0.1-7.4,2.1-9.4,5.4C8,67.8,7.1,60.8,10.9,56c0.2-0.2,0.4-0.4,0.6-0.7 c5.8,3.3,13.2,1.2,16.5-4.6c1-1.8,1.6-3.9,1.6-5.9c0-0.8-0.7-1.5-1.5-1.5s-1.5,0.7-1.5,1.5c0,5-4.1,9.1-9.1,9.1 c-1.9,0-3.8-0.6-5.3-1.7c-0.1-0.1-0.3-0.2-0.4-0.2l0,0c-3.8-3.2-4.3-9-1-12.8c0.5-0.6,1.2-1.2,1.9-1.7c0.6-0.4,0.8-1.1,0.6-1.7 c-0.2-0.6-0.3-1.2-0.3-1.9c0-3.4,2.8-6.1,6.2-6.1l0,0l0,0h0.3c0.5,0,1-0.2,1.3-0.5c0.3-0.4,0.4-0.9,0.3-1.3l0,0v-0.1 c0-0.2,0-0.3-0.1-0.5c-0.4-1.1-0.5-2.4-0.1-3.5c0.3-0.8,0.8-1.5,1.4-2.1c1.7-1.8,3.1-2.4,4.3-2.5c3.3,0.1,6,2.8,6,6.1 c0,0.8,0.7,1.5,1.5,1.5s1.5-0.7,1.5-1.5c0-3.2-1.7-6.2-4.4-7.8c0.2-1.8,1-3.4,2.4-4.5c1.5-1.2,3.4-1.7,5.2-1.4 c3.2,0.6,5.6,3.5,5.5,6.8v65.3H44z"></path> </svg> 