<?xml version="1.0" encoding="UTF-8"?> <!-- Generator: Adobe Illustrator 23.0.1, SVG Export Plug-In . SVG Version: 6.00 Build 0) --> <svg xmlns="http://www.w3.org/2000/svg" xmlns:xlink="http://www.w3.org/1999/xlink" id="Layer_1" x="0px" y="0px" viewBox="0 0 100.8 100.8" style="enable-background:new 0 0 100.8 100.8;" xml:space="preserve"> <style type="text/css"> .st0{fill:#242626;} </style> <path class="st0" d="M83.7,7.6H16.1c-1.4,0-2.5,1.1-2.5,2.5v49.5c0,10.9,4.8,20.7,12.5,27.4c0.1,0.1,0.2,0.2,0.3,0.3 c6.3,5.4,14.6,8.7,23.6,8.7c7.9,0,15.3-2.6,21.3-6.9c0.1-0.1,0.2-0.1,0.3-0.2c8.9-6.6,14.7-17.2,14.7-29.2V10.1 C86.2,8.7,85.1,7.6,83.7,7.6z M28.9,85.4l5.6-24.7l28.4-0.1l6,26.5c-5.4,3.7-11.9,5.9-18.9,5.9C41.9,92.9,34.6,90.1,28.9,85.4z M41,40.1v-6.3h14.5v6.3h3v-6.3H68v15.6H29.4l-0.5-15.6H38v6.3H41z M66.6,52.4L63,57.5l-28.9,0.1l-3.4-5.3H66.6z M83.2,59.6 c0,10.2-4.6,19.3-11.8,25.4l-5.8-25.6c0-0.1-0.1-0.2-0.1-0.3l5.1-7.4c0.2-0.3,0.3-0.6,0.3-0.9l0,0V33.3c0-1.4-1.1-2.5-2.5-2.5H50.2 V20c0.4-0.4,1.4-1.2,2.6-1.3c1.5-0.1,3.1,0.7,4.9,2.4c2.9,2.8,5.9,4.1,8.8,3.8c4.1-0.5,6.4-3.9,6.5-4c0.5-0.7,0.3-1.6-0.4-2.1 s-1.6-0.3-2.1,0.4c0,0-1.7,2.4-4.3,2.7c-2,0.2-4.1-0.8-6.4-3c-2.4-2.3-4.8-3.4-7.3-3.2c-3.2,0.3-5,2.7-5,2.8l-0.3,0.9v11.4H28.3 c-0.7,0-1.3,0.3-1.8,0.8c-0.5,0.5-0.7,1.1-0.7,1.8l0.6,17.5l0,0c0,0.3,0.1,0.5,0.2,0.7l5,7.8l-5.3,23.6c-6-6-9.7-14.3-9.7-23.5v-49 h66.6V59.6z"></path> </svg> 