<svg enable-background="new 0 0 100 100" viewBox="0 0 100 100" xmlns="http://www.w3.org/2000/svg"><g fill="#242626"><path d="m40.7 71.4c-.8 0-1.5.7-1.5 1.5v8.8c0 .8.7 1.5 1.5 1.5s1.5-.7 1.5-1.5v-8.8c0-.9-.7-1.5-1.5-1.5z"/><path d="m62.8 59.1c-.8 0-1.5.7-1.5 1.5v21c0 .8.7 1.5 1.5 1.5s1.5-.7 1.5-1.5v-21c0-.8-.7-1.5-1.5-1.5z"/><path d="m82.3 35.5c-.8 0-1.5.7-1.5 1.5v44.6c0 .8.7 1.5 1.5 1.5s1.5-.7 1.5-1.5v-44.6c0-.8-.7-1.5-1.5-1.5z"/><path d="m15.8 82.9c.4 0 .8-.2 1.1-.4l63.9-63.9v6.4c0 .8.7 1.5 1.5 1.5s1.5-.7 1.5-1.5v-10c0-.2 0-.4-.1-.5-.2-.4-.4-.7-.8-.8-.2-.1-.4-.1-.6-.1h-10c-.8 0-1.5.7-1.5 1.5s.7 1.5 1.5 1.5h6.4l-64 63.8c-.6.6-.6 1.5 0 2.1.3.3.7.4 1.1.4z"/></g></svg>