<?xml version="1.0" encoding="UTF-8"?> <!-- Generator: Adobe Illustrator 23.0.1, SVG Export Plug-In . SVG Version: 6.00 Build 0) --> <svg xmlns="http://www.w3.org/2000/svg" xmlns:xlink="http://www.w3.org/1999/xlink" id="Layer_1" x="0px" y="0px" viewBox="0 0 100.4 100.4" style="enable-background:new 0 0 100.4 100.4;" xml:space="preserve"> <style type="text/css"> .st0{fill:#242626;} </style> <path class="st0" d="M93.5,40.6c-0.2-0.3-0.6-0.5-1-0.6c-0.5-0.1-9.3-1.1-18.2,0.3c-1.6-6.3-3.8-10.6-3.9-10.8c-0.4-0.7-1.3-1-2-0.6 c-0.2,0.1-4.6,2.3-9.5,5.9c-3.8-6-8-10.4-8.3-10.8c-0.3-0.3-0.7-0.5-1.1-0.5s-0.8,0.2-1.1,0.5c-0.3,0.3-4.2,4.5-7.9,10.2 c-5-3.7-9.5-5.9-9.7-6c-0.4-0.2-0.8-0.2-1.2-0.1c-0.4,0.1-0.7,0.4-0.9,0.8c-0.1,0.2-2.1,4.8-3.6,10.9C16.5,38.5,8,39.6,7.5,39.6 c0,0,0,0,0,0s0,0,0,0c0,0-0.1,0-0.1,0c-0.1,0-0.1,0-0.1,0c-0.1,0-0.1,0-0.1,0.1c0,0-0.1,0-0.1,0.1c0,0-0.1,0.1-0.1,0.1 c0,0-0.1,0-0.1,0.1c0,0-0.1,0.1-0.1,0.1c0,0,0,0-0.1,0.1c0,0,0,0,0,0c0,0.1-0.1,0.1-0.1,0.2c0,0,0,0.1-0.1,0.1 c0,0.1-0.1,0.2-0.1,0.2c0,0,0,0,0,0c0,0.2-0.1,0.4,0,0.6c0,0.2,0.2,1.3,0.6,2.9c1.4,5.9,5.2,19.3,13.3,25.2 c5.7,4.2,12.2,6.5,17.7,6.5c2.5,0,4.8-0.5,6.7-1.4c1.6,0.8,3.3,1.3,5.1,1.3c1.8,0,3.5-0.5,5.1-1.3c2.1,1.3,4.7,1.9,7.6,1.9 c5.5,0,11.8-2.3,17.6-6.5c10.3-7.6,13.8-27.3,13.9-28.1C93.9,41.3,93.8,40.9,93.5,40.6z M68.4,32.3c0.7,1.7,2,4.7,2.9,8.6 c-2.8,0.7-5.6,1.6-8,3c-0.8-2.2-1.8-4.4-3-6.5C63.7,35,66.8,33.2,68.4,32.3z M31,31.7c1.7,0.9,4.8,2.7,8,5.1c-1.2,2-2.2,4.2-3.1,6.4 c-2.4-1.3-5-2.1-7.8-2.8C29.2,36.7,30.3,33.5,31,31.7z M21.9,67.1c-0.4-0.3-0.9-0.7-1.3-1.1c-0.1-0.1-0.2-0.1-0.2-0.2 c-0.4-0.4-0.8-0.8-1.1-1.2c-0.1-0.1-0.1-0.2-0.2-0.2c-0.4-0.4-0.7-0.9-1.1-1.3c0,0,0,0,0,0c-0.4-0.5-0.7-1-1-1.4 c-0.1-0.1-0.1-0.2-0.2-0.3c-0.3-0.5-0.6-1-0.9-1.5c-0.1-0.1-0.1-0.2-0.2-0.3c-0.3-0.5-0.6-1-0.8-1.5c0,0,0,0,0-0.1 c-0.3-0.5-0.5-1.1-0.8-1.6c0-0.1-0.1-0.2-0.1-0.3c-0.2-0.5-0.5-1.1-0.7-1.6c0-0.1-0.1-0.2-0.1-0.3c-0.2-0.5-0.4-1-0.6-1.5 c0,0,0-0.1,0-0.1c-0.2-0.5-0.4-1.1-0.6-1.6c0-0.1-0.1-0.2-0.1-0.3c-0.2-0.5-0.3-1-0.5-1.5c0-0.1-0.1-0.2-0.1-0.3 c-0.1-0.5-0.3-0.9-0.4-1.4c0,0,0-0.1,0-0.1c-0.1-0.5-0.3-0.9-0.4-1.3c0-0.1,0-0.2-0.1-0.3c-0.1-0.4-0.2-0.8-0.3-1.2 c0-0.1,0-0.1-0.1-0.2c-0.1-0.3-0.2-0.7-0.2-1c0,0,0-0.1,0-0.1c-0.1-0.3-0.1-0.6-0.2-0.9c0,0,0-0.1,0-0.1C14,42.1,27,41.5,35,46.1 c-0.5,2-0.9,4-0.9,5.9c0,8.8,2.9,16.4,7.4,20.5C36.3,74.1,28.6,72.1,21.9,67.1z M45.4,71.7C45.4,71.7,45.4,71.7,45.4,71.7 c-4.8-2.9-8.3-10.6-8.3-19.7c0-2,0.4-4,1-6c0,0,0,0,0,0C40.7,38,47,30.2,49.6,27.3c1.6,1.9,4.8,5.7,7.5,10.3c0,0.1,0.1,0.2,0.2,0.3 c0,0,0,0,0,0c2.6,4.4,4.7,9.4,4.7,14c0,11.5-5.6,20.9-12.4,20.9C48.1,72.9,46.7,72.4,45.4,71.7z M78.1,67.5 c-7.1,5.3-15.3,7.2-20.6,5.1C62,68.5,65,60.9,65,52c0-1.7-0.2-3.4-0.7-5.1c7.9-5,21.6-4.4,26.2-4C89.5,47.6,85.9,61.7,78.1,67.5z"></path> </svg> 