<svg enable-background="new 0 0 100.4 100.4" viewBox="0 0 100.4 100.4" xmlns="http://www.w3.org/2000/svg"><g fill="#242626"><path d="m70.6 38.3c2.1 0 4.1-.8 5.6-2.3s2.3-3.5 2.3-5.6c0-4.4-3.6-8-8-8-2.1 0-4.1.8-5.6 2.3s-2.3 3.5-2.3 5.6.8 4.1 2.3 5.6c1.5 1.6 3.5 2.4 5.7 2.4zm-3.5-11.4c.9-.9 2.2-1.5 3.5-1.5 2.7 0 5 2.2 5 5 0 1.3-.5 2.6-1.5 3.5-.9.9-2.2 1.4-3.5 1.4-1.3 0-2.6-.5-3.5-1.5-.9-.9-1.5-2.2-1.5-3.5s.5-2.5 1.5-3.4z"/><path d="m96.6 85.4-15.3-35.7 5.2-8.3c.1-.1.1-.2.1-.3 1.8-3 2.7-6.3 2.7-9.7 0-5-1.9-9.8-5.5-13.3-3.5-3.6-8.3-5.5-13.3-5.5-10.4 0-18.8 8.4-18.8 18.8 0 3.5.9 6.8 2.7 9.8 0 .1.1.1.1.2l2.8 4.8h-36.1c-.6 0-1.1.4-1.4.9l-16.4 38.3c-.2.5-.2 1 .1 1.4s.7.7 1.3.7h90.5c.5 0 1-.3 1.3-.7.2-.4.2-.9 0-1.4zm-39.4-45.7c-1.6-2.5-2.4-5.4-2.4-8.4 0-8.7 7.1-15.8 15.8-15.8 4.2 0 8.2 1.7 11.2 4.7s4.6 7 4.6 11.2c0 2.9-.8 5.8-2.4 8.4-.1.1-.1.2-.1.3l-13.6 21.6-8.9-15s0 0 0-.1l-4-6.7c-.1 0-.2-.1-.2-.2zm-35 9.3h3.5c.2 4.3 3.9 5.9 6.6 7.1 1.4.6 2.9 1.3 3.4 2.1.7 1.3.3 2.1-1.2 4.1-1.3 1.8-2.9 4.1-1.8 7 1.7 4.6 10.7 5.8 20.6 6.8 1.8.2 3.3.3 4.3.5 7.6 1.3 10.2 5.6 11 7.9h-61.6zm49.5 35.5c-.7-2.6-3.4-9.1-13.7-10.8-1.1-.2-2.7-.3-4.5-.5-5.5-.5-16.8-1.6-18-4.9-.5-1.4.2-2.5 1.5-4.2 1.3-1.8 3.1-4.3 1.3-7.4-1-1.6-2.9-2.5-4.8-3.3-2.9-1.2-4.6-2.2-4.8-4.4h30.5l9.7 16.4c.3.4.8.7 1.3.7.5 0 1-.3 1.3-.7l7.9-12.6 13.6 31.7z"/></g></svg>